<svg xmlns="http://www.w3.org/2000/svg" xmlns:xlink="http://www.w3.org/1999/xlink" width="1000" zoomAndPan="magnify" viewBox="0 0 750 525.000007" height="700" preserveAspectRatio="xMidYMid meet" version="1.0"><defs><filter x="0%" y="0%" width="100%" height="100%" id="6c4f7d9a8b"><feColorMatrix values="0 0 0 0 1 0 0 0 0 1 0 0 0 0 1 0 0 0 1 0" color-interpolation-filters="sRGB"/></filter><g/><mask id="9d090f0313"><g filter="url(#6c4f7d9a8b)"><rect x="-75" width="900" fill="#000000" y="-52.500001" height="630.000008" fill-opacity="0.7176"/></g></mask><clipPath id="53d873d572"><path d="M 21.949219 21.609375 L 27 21.609375 L 27 266.390625 L 21.949219 266.390625 Z M 21.949219 21.609375 " clip-rule="nonzero"/></clipPath><clipPath id="c9f57bf6fd"><rect x="0" width="148" y="0" height="288"/></clipPath><clipPath id="7c9ca488b7"><path d="M 150 129.332031 L 749 129.332031 L 749 524 L 150 524 Z M 150 129.332031 " clip-rule="nonzero"/></clipPath><clipPath id="6ebe7fec8f"><path d="M 370 129.332031 L 627 129.332031 L 627 261 L 370 261 Z M 370 129.332031 " clip-rule="nonzero"/></clipPath><clipPath id="13225adc96"><path d="M 1 208.199219 L 466.324219 208.199219 L 466.324219 524 L 1 524 Z M 1 208.199219 " clip-rule="nonzero"/></clipPath><clipPath id="0f52a9cc4d"><path d="M 172 208.199219 L 371 208.199219 L 371 310 L 172 310 Z M 172 208.199219 " clip-rule="nonzero"/></clipPath></defs><g mask="url(#9d090f0313)"><g transform="matrix(1, 0, 0, 1, 341, 3)"><g clip-path="url(#c9f57bf6fd)"><g clip-path="url(#53d873d572)"><path stroke-linecap="round" transform="matrix(0.462345, 0, 0, 0.463079, -118.313315, -19.32827)" fill="none" stroke-linejoin="miter" d="M 308.415927 612.003919 L 308.415927 93.422133 " stroke="#000000" stroke-width="10" stroke-opacity="1" stroke-miterlimit="10"/></g><path fill="#15a34a" d="M 26.6875 23.929688 C 26.6875 23.929688 26.6875 37.464844 88.328125 36.617188 C 149.96875 35.773438 146.59375 45.921875 146.59375 45.921875 C 146.59375 45.921875 123.925781 41.691406 93.460938 59.453125 C 62.992188 77.214844 26.683594 72.140625 26.683594 72.140625 " fill-opacity="1" fill-rule="nonzero"/></g></g></g><g clip-path="url(#7c9ca488b7)"><path fill="#15a34a" d="M 507.230469 129.386719 L 500.980469 130.222656 C 475.953125 139.253906 442.363281 169.367188 400.214844 220.558594 C 342.941406 287.359375 259.640625 392.945312 150.3125 537.3125 L 748.914062 533.800781 C 725.894531 473.953125 704.183594 420.757812 683.785156 374.214844 C 663.386719 327.667969 644.300781 287.773438 626.527344 254.523438 L 600.847656 209.640625 L 577.132812 174.734375 L 555.386719 149.796875 L 535.609375 134.835938 L 517.796875 129.847656 L 507.230469 129.386719 " fill-opacity="1" fill-rule="nonzero"/></g><g clip-path="url(#6ebe7fec8f)"><path fill="#f2f2f2" d="M 507.230469 129.386719 L 500.980469 130.222656 C 475.953125 139.253906 442.363281 169.367188 400.214844 220.558594 C 390.972656 231.335938 381.054688 243.125 370.457031 255.925781 C 371.339844 255.574219 372.289062 255.152344 373.308594 254.652344 C 389.078125 245.140625 406.203125 234.222656 424.679688 221.90625 C 430.523438 218.496094 434.382812 216.789062 436.261719 216.789062 C 436.4375 216.789062 436.601562 216.804688 436.742188 216.835938 C 442.027344 217.691406 445.84375 220.136719 448.191406 224.167969 C 451.507812 228.648438 455.0625 237.964844 458.863281 252.121094 C 459.542969 253.511719 460.316406 254.324219 461.1875 254.5625 C 461.421875 254.640625 461.664062 254.675781 461.921875 254.675781 C 463.042969 254.675781 464.40625 253.960938 466.003906 252.527344 C 468.691406 250.304688 476.714844 242.476562 490.074219 229.042969 C 492.542969 226.902344 494.113281 225.835938 494.792969 225.835938 C 494.855469 225.835938 494.914062 225.84375 494.960938 225.863281 C 501.101562 228.152344 508.890625 237.335938 518.332031 253.40625 C 518.394531 253.425781 518.464844 253.433594 518.539062 253.433594 C 519.226562 253.433594 520.410156 252.601562 522.085938 250.933594 C 530.699219 240.375 536.339844 233.8125 539.015625 231.242188 C 540.324219 230.074219 541.703125 229.492188 543.144531 229.492188 C 543.234375 229.492188 543.324219 229.492188 543.410156 229.496094 C 545.082031 229.535156 548.054688 231.210938 552.324219 234.535156 C 555.886719 237.230469 561.808594 242.996094 570.085938 251.828125 C 571.234375 252.746094 572.246094 253.207031 573.117188 253.207031 C 573.378906 253.207031 573.628906 253.167969 573.867188 253.082031 L 577.140625 232.894531 C 578.019531 231.070312 579.097656 230.15625 580.367188 230.15625 C 580.492188 230.15625 580.617188 230.164062 580.742188 230.183594 C 585.921875 232.664062 591.269531 235.957031 596.792969 240.054688 C 600.835938 242.671875 608.007812 249.054688 618.304688 259.203125 C 619.566406 259.90625 620.667969 260.253906 621.605469 260.253906 C 621.699219 260.253906 621.792969 260.25 621.882812 260.242188 C 623.296875 259.648438 624.855469 257.765625 626.554688 254.601562 C 626.550781 254.574219 626.539062 254.550781 626.527344 254.523438 L 600.847656 209.640625 L 577.132812 174.734375 L 555.386719 149.796875 L 535.609375 134.835938 L 517.796875 129.847656 Z M 507.230469 129.386719 " fill-opacity="1" fill-rule="nonzero"/></g><g clip-path="url(#13225adc96)"><path fill="#3aaf66" d="M 278.328125 208.238281 L 273.472656 208.890625 C 254.039062 215.898438 227.957031 239.269531 195.226562 279.003906 C 150.753906 330.851562 86.066406 412.800781 1.167969 524.851562 L 466.003906 522.125 C 448.125 475.675781 431.269531 434.390625 415.429688 398.261719 C 399.589844 362.136719 384.769531 331.171875 370.964844 305.367188 L 351.023438 270.53125 L 332.609375 243.4375 L 315.722656 224.082031 L 300.363281 212.472656 L 286.53125 208.601562 L 278.328125 208.238281 " fill-opacity="1" fill-rule="nonzero"/></g><g clip-path="url(#0f52a9cc4d)"><path fill="#f2f2f2" d="M 278.328125 208.238281 L 273.472656 208.890625 C 254.039062 215.898438 227.957031 239.269531 195.226562 279.003906 C 188.050781 287.371094 180.347656 296.519531 172.117188 306.453125 C 172.800781 306.183594 173.539062 305.851562 174.332031 305.464844 C 186.578125 298.082031 199.875 289.609375 214.226562 280.050781 C 218.761719 277.402344 221.757812 276.078125 223.21875 276.078125 C 223.355469 276.078125 223.480469 276.089844 223.589844 276.117188 C 227.695312 276.78125 230.660156 278.675781 232.480469 281.804688 C 235.054688 285.28125 237.820312 292.515625 240.769531 303.5 C 241.296875 304.578125 241.898438 305.210938 242.574219 305.398438 C 242.753906 305.457031 242.945312 305.484375 243.144531 305.484375 C 244.015625 305.484375 245.074219 304.929688 246.316406 303.816406 C 248.402344 302.09375 254.628906 296.015625 265.003906 285.589844 C 266.921875 283.929688 268.144531 283.097656 268.667969 283.097656 C 268.71875 283.097656 268.761719 283.105469 268.800781 283.121094 C 273.566406 284.898438 279.617188 292.023438 286.949219 304.496094 C 286.996094 304.511719 287.050781 304.519531 287.109375 304.519531 C 287.644531 304.519531 288.5625 303.875 289.863281 302.578125 C 296.550781 294.382812 300.933594 289.289062 303.011719 287.296875 C 304.027344 286.390625 305.097656 285.9375 306.21875 285.9375 C 306.285156 285.9375 306.355469 285.9375 306.421875 285.941406 C 307.722656 285.96875 310.027344 287.273438 313.34375 289.851562 C 316.113281 291.945312 320.710938 296.417969 327.136719 303.273438 C 328.03125 303.988281 328.816406 304.34375 329.492188 304.34375 C 329.695312 304.34375 329.890625 304.3125 330.074219 304.25 L 332.617188 288.578125 C 333.300781 287.164062 334.132812 286.453125 335.121094 286.453125 C 335.21875 286.453125 335.316406 286.460938 335.414062 286.472656 C 339.433594 288.402344 343.585938 290.953125 347.875 294.136719 C 351.015625 296.167969 356.585938 301.121094 364.582031 309 C 365.5625 309.542969 366.414062 309.8125 367.144531 309.8125 C 367.214844 309.8125 367.289062 309.8125 367.359375 309.804688 C 368.457031 309.34375 369.667969 307.882812 370.988281 305.425781 C 370.984375 305.40625 370.976562 305.386719 370.964844 305.367188 L 351.023438 270.53125 L 332.609375 243.4375 L 315.722656 224.082031 L 300.363281 212.472656 L 286.53125 208.601562 Z M 278.328125 208.238281 " fill-opacity="1" fill-rule="nonzero"/></g><g fill="#000000" fill-opacity="1"><g transform="translate(379.798198, 66.348176)"><g><path d="M 9.703125 0.390625 C 8.578125 0.390625 7.5 0.28125 6.46875 0.0625 C 5.4375 -0.144531 4.492188 -0.453125 3.640625 -0.859375 C 2.773438 -1.285156 2.09375 -1.84375 1.59375 -2.53125 C 1.09375 -3.21875 0.84375 -3.984375 0.84375 -4.828125 C 0.84375 -5.335938 0.960938 -5.800781 1.203125 -6.21875 C 1.441406 -6.632812 1.757812 -6.957031 2.15625 -7.1875 C 2.550781 -7.425781 2.984375 -7.546875 3.453125 -7.546875 C 3.859375 -7.546875 4.234375 -7.429688 4.578125 -7.203125 C 4.929688 -6.984375 5.210938 -6.6875 5.421875 -6.3125 C 5.628906 -5.945312 5.734375 -5.566406 5.734375 -5.171875 C 5.734375 -4.554688 5.554688 -4.078125 5.203125 -3.734375 C 4.847656 -3.390625 4.347656 -3.175781 3.703125 -3.09375 C 4.398438 -2.601562 5.175781 -2.234375 6.03125 -1.984375 C 6.894531 -1.742188 7.960938 -1.625 9.234375 -1.625 C 11.378906 -1.625 12.9375 -2.140625 13.90625 -3.171875 C 14.414062 -3.734375 14.671875 -4.410156 14.671875 -5.203125 C 14.671875 -6.085938 14.375 -6.8125 13.78125 -7.375 C 13.507812 -7.625 13.125 -7.863281 12.625 -8.09375 C 12.132812 -8.332031 11.585938 -8.546875 10.984375 -8.734375 C 10.296875 -8.929688 9.570312 -9.125 8.8125 -9.3125 C 6.894531 -9.789062 5.359375 -10.347656 4.203125 -10.984375 C 3.046875 -11.628906 2.242188 -12.347656 1.796875 -13.140625 C 1.347656 -13.921875 1.125 -14.863281 1.125 -15.96875 C 1.125 -17.125 1.472656 -18.164062 2.171875 -19.09375 C 2.867188 -20.019531 3.84375 -20.742188 5.09375 -21.265625 C 6.351562 -21.796875 7.78125 -22.0625 9.375 -22.0625 C 10.757812 -22.0625 12.144531 -21.835938 13.53125 -21.390625 C 14.3125 -21.140625 14.984375 -20.832031 15.546875 -20.46875 C 16.109375 -20.113281 16.566406 -19.675781 16.921875 -19.15625 C 17.285156 -18.59375 17.46875 -17.976562 17.46875 -17.3125 C 17.46875 -16.457031 17.25 -15.765625 16.8125 -15.234375 C 16.382812 -14.703125 15.789062 -14.4375 15.03125 -14.4375 C 14.601562 -14.4375 14.203125 -14.519531 13.828125 -14.6875 C 13.460938 -14.863281 13.171875 -15.101562 12.953125 -15.40625 C 12.734375 -15.71875 12.625 -16.070312 12.625 -16.46875 C 12.625 -17.195312 12.804688 -17.75 13.171875 -18.125 C 13.546875 -18.507812 14.019531 -18.703125 14.59375 -18.703125 C 13.457031 -19.597656 11.835938 -20.046875 9.734375 -20.046875 C 8.804688 -20.046875 7.957031 -19.90625 7.1875 -19.625 C 6.414062 -19.351562 5.785156 -18.957031 5.296875 -18.4375 C 4.796875 -17.894531 4.546875 -17.269531 4.546875 -16.5625 C 4.546875 -16.195312 4.578125 -15.890625 4.640625 -15.640625 C 4.703125 -15.390625 4.835938 -15.128906 5.046875 -14.859375 C 5.242188 -14.578125 5.519531 -14.316406 5.875 -14.078125 C 6.238281 -13.847656 6.734375 -13.613281 7.359375 -13.375 C 7.960938 -13.132812 8.707031 -12.921875 9.59375 -12.734375 C 12.351562 -12.109375 14.410156 -11.367188 15.765625 -10.515625 C 16.398438 -10.109375 16.910156 -9.644531 17.296875 -9.125 C 17.691406 -8.613281 17.972656 -8.082031 18.140625 -7.53125 C 18.273438 -7 18.34375 -6.390625 18.34375 -5.703125 C 18.34375 -4.441406 18.007812 -3.351562 17.34375 -2.4375 C 16.675781 -1.519531 15.695312 -0.816406 14.40625 -0.328125 C 13.113281 0.148438 11.546875 0.390625 9.703125 0.390625 Z M 9.703125 0.390625 "/></g></g><g transform="translate(398.999244, 66.348176)"><g><path d="M 11.421875 0.390625 C 9.960938 0.390625 8.585938 0.0859375 7.296875 -0.515625 C 6.015625 -1.117188 4.921875 -1.945312 4.015625 -3 C 3.128906 -4.039062 2.4375 -5.257812 1.9375 -6.65625 C 1.445312 -8.050781 1.203125 -9.507812 1.203125 -11.03125 C 1.203125 -12.59375 1.453125 -14.050781 1.953125 -15.40625 C 2.460938 -16.769531 3.175781 -17.945312 4.09375 -18.9375 C 5.019531 -19.925781 6.140625 -20.691406 7.453125 -21.234375 C 8.773438 -21.785156 10.203125 -22.0625 11.734375 -22.0625 C 13.066406 -22.0625 14.332031 -21.78125 15.53125 -21.21875 C 16.726562 -20.65625 17.71875 -19.867188 18.5 -18.859375 C 19.28125 -17.828125 19.671875 -16.675781 19.671875 -15.40625 C 19.671875 -14.96875 19.550781 -14.546875 19.3125 -14.140625 C 19.082031 -13.742188 18.75 -13.421875 18.3125 -13.171875 C 17.882812 -12.921875 17.398438 -12.796875 16.859375 -12.796875 C 16.117188 -12.796875 15.523438 -13.007812 15.078125 -13.4375 C 14.640625 -13.863281 14.421875 -14.441406 14.421875 -15.171875 C 14.421875 -15.640625 14.546875 -16.046875 14.796875 -16.390625 C 15.054688 -16.742188 15.382812 -17.007812 15.78125 -17.1875 C 16.175781 -17.375 16.570312 -17.46875 16.96875 -17.46875 C 16.476562 -18.226562 15.765625 -18.847656 14.828125 -19.328125 C 13.898438 -19.804688 12.859375 -20.046875 11.703125 -20.046875 C 10.410156 -20.046875 9.253906 -19.671875 8.234375 -18.921875 C 7.210938 -18.171875 6.414062 -17.109375 5.84375 -15.734375 C 5.28125 -14.367188 5 -12.78125 5 -10.96875 C 5 -9.914062 5.164062 -8.878906 5.5 -7.859375 C 5.832031 -6.835938 6.300781 -5.90625 6.90625 -5.0625 C 7.53125 -4.207031 8.3125 -3.523438 9.25 -3.015625 C 10.195312 -2.515625 11.21875 -2.265625 12.3125 -2.265625 C 13.132812 -2.265625 13.914062 -2.421875 14.65625 -2.734375 C 15.40625 -3.046875 16.039062 -3.460938 16.5625 -3.984375 C 17.070312 -4.492188 17.5 -5.046875 17.84375 -5.640625 C 18.1875 -6.234375 18.441406 -6.851562 18.609375 -7.5 L 20.53125 -6.5625 C 20.007812 -4.332031 18.972656 -2.613281 17.421875 -1.40625 C 15.867188 -0.207031 13.867188 0.390625 11.421875 0.390625 Z M 11.421875 0.390625 "/></g></g></g></svg>