<svg xmlns="http://www.w3.org/2000/svg" xmlns:xlink="http://www.w3.org/1999/xlink" width="175" zoomAndPan="magnify" viewBox="0 0 131.25 30.000001" height="40" preserveAspectRatio="xMidYMid meet" version="1.0"><defs><g/></defs><g fill="#000000" fill-opacity="1"><g transform="translate(3.302917, 19.551939)"><g><path d="M 2.703125 -3.292969 C 3.609375 -3.074219 4.226562 -2.839844 4.554688 -2.570312 C 4.78125 -2.386719 4.894531 -2.148438 4.894531 -1.863281 C 4.894531 -1.574219 4.832031 -1.335938 4.710938 -1.171875 C 4.402344 -0.742188 3.847656 -0.523438 3.066406 -0.523438 C 1.976562 -0.523438 1.359375 -0.894531 1.222656 -1.636719 L 0.378906 -1.636719 C 0.628906 -0.453125 1.523438 0.132812 3.066406 0.132812 C 3.753906 0.132812 4.328125 -0.0117188 4.792969 -0.320312 C 5.347656 -0.679688 5.636719 -1.214844 5.636719 -1.914062 C 5.636719 -2.488281 5.410156 -2.929688 4.957031 -3.238281 C 4.636719 -3.464844 4.125 -3.671875 3.414062 -3.855469 C 2.695312 -4.042969 2.230469 -4.195312 2.015625 -4.308594 C 1.542969 -4.546875 1.304688 -4.875 1.316406 -5.308594 C 1.316406 -5.53125 1.359375 -5.730469 1.460938 -5.871094 C 1.726562 -6.273438 2.199219 -6.480469 2.878906 -6.480469 C 3.835938 -6.480469 4.382812 -6.171875 4.523438 -5.574219 L 5.308594 -5.574219 C 5.050781 -6.582031 4.238281 -7.097656 2.878906 -7.097656 C 2.261719 -7.097656 1.71875 -6.933594 1.265625 -6.601562 C 0.800781 -6.273438 0.566406 -5.789062 0.566406 -5.132812 C 0.566406 -4.238281 1.285156 -3.621094 2.703125 -3.292969 Z M 2.703125 -3.292969 "/></g></g></g><g fill="#000000" fill-opacity="1"><g transform="translate(12.185003, 19.551939)"><g><path d="M 5.832031 -2.3125 L 5.832031 -6.992188 L 5.113281 -6.992188 L 5.113281 -2.210938 C 5.113281 -1.921875 5.058594 -1.6875 4.957031 -1.492188 C 4.660156 -0.914062 4.082031 -0.628906 3.230469 -0.628906 C 2.675781 -0.628906 2.230469 -0.75 1.902344 -0.996094 C 1.523438 -1.273438 1.335938 -1.675781 1.335938 -2.210938 L 1.335938 -6.992188 L 0.617188 -6.992188 L 0.617188 -2.3125 C 0.617188 -1.554688 0.863281 -0.957031 1.359375 -0.523438 C 1.820312 -0.113281 2.449219 0.09375 3.230469 0.09375 C 4 0.09375 4.617188 -0.113281 5.089844 -0.523438 C 5.585938 -0.957031 5.832031 -1.554688 5.832031 -2.3125 Z M 5.832031 -2.3125 "/></g></g></g><g fill="#000000" fill-opacity="1"><g transform="translate(21.611644, 19.551939)"><g><path d="M 1.492188 -3.457031 L 1.492188 -6.304688 L 3.117188 -6.304688 C 3.539062 -6.304688 3.878906 -6.171875 4.132812 -5.902344 C 4.382812 -5.636719 4.515625 -5.308594 4.515625 -4.894531 C 4.515625 -4.484375 4.382812 -4.144531 4.113281 -3.867188 C 3.847656 -3.589844 3.515625 -3.457031 3.117188 -3.457031 Z M 5.234375 -4.886719 C 5.234375 -5.480469 5.007812 -5.996094 4.578125 -6.398438 C 4.15625 -6.789062 3.628906 -6.992188 3.011719 -6.992188 L 0.769531 -6.992188 L 0.769531 0 L 1.492188 0 L 1.492188 -2.765625 L 2.324219 -2.765625 L 4.382812 0 L 5.347656 0 L 3.1875 -2.765625 C 3.734375 -2.796875 4.195312 -2.992188 4.578125 -3.351562 C 5.007812 -3.753906 5.234375 -4.269531 5.234375 -4.886719 Z M 5.234375 -4.886719 "/></g></g></g><g fill="#000000" fill-opacity="1"><g transform="translate(30.185482, 19.551939)"><g><path d="M 3.28125 0.421875 L 6.449219 -6.992188 L 5.667969 -6.992188 L 3.28125 -1.359375 L 0.882812 -6.992188 L 0.101562 -6.992188 Z M 3.28125 0.421875 "/></g></g></g><g fill="#000000" fill-opacity="1"><g transform="translate(39.714875, 19.551939)"><g><path d="M 4.925781 0 L 4.925781 -0.667969 L 1.492188 -0.667969 L 1.492188 -3.15625 L 4.824219 -3.15625 L 4.824219 -3.835938 L 1.492188 -3.835938 L 1.492188 -6.324219 L 4.925781 -6.324219 L 4.925781 -6.992188 L 0.769531 -6.992188 L 0.769531 0 Z M 4.925781 0 "/></g></g></g><g fill="#000000" fill-opacity="1"><g transform="translate(48.391466, 19.551939)"><g><path d="M 3.476562 -3.292969 L 6.121094 -6.992188 L 5.203125 -6.992188 L 3.117188 -4 L 1.027344 -6.992188 L 0.101562 -6.992188 L 2.757812 -3.28125 L 2.757812 0 L 3.476562 0 Z M 3.476562 -3.292969 "/></g></g></g><g fill="#000000" fill-opacity="1"><g transform="translate(57.592068, 19.551939)"><g/></g></g><g fill="#000000" fill-opacity="1"><g transform="translate(63.350626, 19.551939)"><g><path d="M 7.1875 -2.140625 L 6.398438 -2.140625 C 6.148438 -1.6875 5.8125 -1.316406 5.378906 -1.050781 C 4.945312 -0.769531 4.464844 -0.636719 3.949219 -0.636719 C 3.179688 -0.636719 2.519531 -0.914062 1.976562 -1.492188 C 1.441406 -2.035156 1.183594 -2.703125 1.183594 -3.488281 C 1.183594 -4.269531 1.441406 -4.9375 1.976562 -5.492188 C 2.222656 -5.75 2.519531 -5.953125 2.859375 -6.109375 C 3.1875 -6.261719 3.515625 -6.34375 3.847656 -6.34375 C 4.164062 -6.34375 4.441406 -6.304688 4.691406 -6.234375 C 5.441406 -6.007812 6.007812 -5.554688 6.386719 -4.863281 L 7.179688 -4.863281 C 6.910156 -5.523438 6.488281 -6.058594 5.902344 -6.46875 C 5.308594 -6.878906 4.660156 -7.085938 3.949219 -7.085938 C 2.972656 -7.085938 2.148438 -6.726562 1.472656 -6.015625 C 1.152344 -5.6875 0.90625 -5.296875 0.730469 -4.863281 C 0.546875 -4.433594 0.460938 -3.96875 0.460938 -3.488281 C 0.460938 -2.5 0.792969 -1.667969 1.472656 -0.964844 C 2.148438 -0.246094 2.972656 0.101562 3.949219 0.101562 C 4.660156 0.101562 5.308594 -0.101562 5.914062 -0.515625 C 6.5 -0.925781 6.921875 -1.460938 7.1875 -2.140625 Z M 7.1875 -2.140625 "/></g></g></g><g fill="#000000" fill-opacity="1"><g transform="translate(73.825298, 19.551939)"><g><path d="M 6.933594 -3.515625 C 6.933594 -2.714844 6.644531 -2.035156 6.089844 -1.480469 C 5.523438 -0.914062 4.84375 -0.636719 4.050781 -0.636719 C 3.261719 -0.636719 2.582031 -0.914062 2.027344 -1.480469 C 1.460938 -2.035156 1.183594 -2.714844 1.183594 -3.515625 C 1.183594 -4.300781 1.460938 -4.976562 2.027344 -5.542969 C 2.582031 -6.097656 3.261719 -6.386719 4.050781 -6.386719 C 4.84375 -6.386719 5.523438 -6.097656 6.089844 -5.542969 C 6.644531 -4.976562 6.933594 -4.300781 6.933594 -3.515625 Z M 7.652344 -3.515625 C 7.652344 -4.011719 7.550781 -4.472656 7.363281 -4.917969 C 7.179688 -5.347656 6.921875 -5.730469 6.59375 -6.058594 C 6.261719 -6.375 5.882812 -6.632812 5.449219 -6.820312 C 5.007812 -7.003906 4.546875 -7.105469 4.050781 -7.105469 C 3.558594 -7.105469 3.085938 -7.003906 2.652344 -6.820312 C 2.222656 -6.632812 1.839844 -6.375 1.511719 -6.058594 C 1.183594 -5.730469 0.925781 -5.347656 0.742188 -4.917969 C 0.554688 -4.472656 0.460938 -4.011719 0.460938 -3.515625 C 0.460938 -3.023438 0.554688 -2.550781 0.742188 -2.117188 C 0.925781 -1.675781 1.183594 -1.296875 1.511719 -0.964844 C 1.839844 -0.636719 2.222656 -0.378906 2.652344 -0.195312 C 3.085938 -0.0117188 3.558594 0.0820312 4.050781 0.0820312 C 4.546875 0.0820312 5.007812 -0.0117188 5.449219 -0.195312 C 5.882812 -0.378906 6.261719 -0.636719 6.59375 -0.964844 C 6.921875 -1.296875 7.179688 -1.675781 7.363281 -2.117188 C 7.550781 -2.550781 7.652344 -3.023438 7.652344 -3.515625 Z M 7.652344 -3.515625 "/></g></g></g><g fill="#000000" fill-opacity="1"><g transform="translate(84.916455, 19.551939)"><g><path d="M 1.492188 -5.152344 L 5.421875 0.433594 L 5.421875 -6.992188 L 4.699219 -6.992188 L 4.699219 -1.851562 L 0.769531 -7.4375 L 0.769531 0 L 1.492188 0 Z M 1.492188 -5.152344 "/></g></g></g><g fill="#000000" fill-opacity="1"><g transform="translate(94.086235, 19.551939)"><g><path d="M 1.492188 -5.152344 L 5.421875 0.433594 L 5.421875 -6.992188 L 4.699219 -6.992188 L 4.699219 -1.851562 L 0.769531 -7.4375 L 0.769531 0 L 1.492188 0 Z M 1.492188 -5.152344 "/></g></g></g><g fill="#000000" fill-opacity="1"><g transform="translate(103.25602, 19.551939)"><g><path d="M 4.925781 0 L 4.925781 -0.667969 L 1.492188 -0.667969 L 1.492188 -3.15625 L 4.824219 -3.15625 L 4.824219 -3.835938 L 1.492188 -3.835938 L 1.492188 -6.324219 L 4.925781 -6.324219 L 4.925781 -6.992188 L 0.769531 -6.992188 L 0.769531 0 Z M 4.925781 0 "/></g></g></g><g fill="#000000" fill-opacity="1"><g transform="translate(111.932606, 19.551939)"><g><path d="M 7.1875 -2.140625 L 6.398438 -2.140625 C 6.148438 -1.6875 5.8125 -1.316406 5.378906 -1.050781 C 4.945312 -0.769531 4.464844 -0.636719 3.949219 -0.636719 C 3.179688 -0.636719 2.519531 -0.914062 1.976562 -1.492188 C 1.441406 -2.035156 1.183594 -2.703125 1.183594 -3.488281 C 1.183594 -4.269531 1.441406 -4.9375 1.976562 -5.492188 C 2.222656 -5.75 2.519531 -5.953125 2.859375 -6.109375 C 3.1875 -6.261719 3.515625 -6.34375 3.847656 -6.34375 C 4.164062 -6.34375 4.441406 -6.304688 4.691406 -6.234375 C 5.441406 -6.007812 6.007812 -5.554688 6.386719 -4.863281 L 7.179688 -4.863281 C 6.910156 -5.523438 6.488281 -6.058594 5.902344 -6.46875 C 5.308594 -6.878906 4.660156 -7.085938 3.949219 -7.085938 C 2.972656 -7.085938 2.148438 -6.726562 1.472656 -6.015625 C 1.152344 -5.6875 0.90625 -5.296875 0.730469 -4.863281 C 0.546875 -4.433594 0.460938 -3.96875 0.460938 -3.488281 C 0.460938 -2.5 0.792969 -1.667969 1.472656 -0.964844 C 2.148438 -0.246094 2.972656 0.101562 3.949219 0.101562 C 4.660156 0.101562 5.308594 -0.101562 5.914062 -0.515625 C 6.5 -0.925781 6.921875 -1.460938 7.1875 -2.140625 Z M 7.1875 -2.140625 "/></g></g></g><g fill="#000000" fill-opacity="1"><g transform="translate(122.407272, 19.551939)"><g><path d="M 0.207031 -6.34375 L 1.902344 -6.34375 L 1.902344 -0.0195312 L 2.621094 -0.0195312 L 2.621094 -6.34375 L 4.320312 -6.34375 L 4.320312 -7.015625 L 0.207031 -7.015625 Z M 0.207031 -6.34375 "/></g></g></g></svg>